PathFileType	4	(X/Y/Z)	C:\Users\gl24\Desktop\Patient 3 Collaboration with Marleny\nms_results\Right\Marker Files\Patient3_NormalGait_1pt0_02_Right_01.trc.trc
DataRate	CameraRate	NumFrames	NumMarkers	Units	OrigDataRate	OrigDataStartFrame	OrigNumFrames
80.459770114943	80.459770114943	6	33	mm	80.459770114943	106	       141
Frame#	Time	L.Toe			L.Midfoot.Superior			Neck			R.Toe			R.Heel			L.Heel			R.Elbow			R.Shoulder			L.Shank.Inferior			L.Shoulder			L.Shank.Superior			R.Shank.Lateral			L.Patella			L.Thigh.Inferior			R.Wrist			R.Midfoot.Superior			L.Shank.Lateral			Sternum			L.Elbow			R.Midfoot.Lateral			L.Thigh.Superior			L.Wrist			R.Thigh.Superior			L.Thigh.Lateral			R.Shank.Inferior			L.Midfoot.Lateral			R.Shank.Superior			R.Thigh.Lateral			L.Asis			R.Thigh.Inferior			R.Patella			Sacral			R.Asis			
		X1	Y1	Z1	X2	Y2	Z2	X3	Y3	Z3	X4	Y4	Z4	X5	Y5	Z5	X6	Y6	Z6	X7	Y7	Z7	X8	Y8	Z8	X9	Y9	Z9	X10	Y10	Z10	X11	Y11	Z11	X12	Y12	Z12	X13	Y13	Z13	X14	Y14	Z14	X15	Y15	Z15	X16	Y16	Z16	X17	Y17	Z17	X18	Y18	Z18	X19	Y19	Z19	X20	Y20	Z20	X21	Y21	Z21	X22	Y22	Z22	X23	Y23	Z23	X24	Y24	Z24	X25	Y25	Z25	X26	Y26	Z26	X27	Y27	Z27	X28	Y28	Z28	X29	Y29	Z29	X30	Y30	Z30	X31	Y31	Z31	X32	Y32	Z32	X33	Y33	Z33	

106	1.695000000000	623.187094436165	39.389513540276	395.623106123661	505.816498518822	90.076546356012	408.481765579016	461.607632710771	1464.716926576305	454.023429918361	676.252776763743	33.989685296327	563.583044944332	409.763281559789	156.940310132859	514.826719464217	332.642210739632	44.918276480203	440.860743030745	437.324232482365	1078.440601072414	717.480401091163	494.461633612646	1423.400898783841	623.007951310047	497.283990248174	229.218255720647	395.029572947860	543.860114512374	1433.104850044361	314.924222879592	543.396882144453	377.373339181774	371.191792100011	600.782356461689	406.319250804474	640.948827318013	600.575826578929	481.394077296808	387.222882950298	628.532082932806	602.968680315623	366.594033752380	510.091567360029	836.586786234777	753.968872171183	586.526935567956	128.194433989022	550.974684197515	447.933342391634	332.614561102960	325.644292756327	613.385159093407	1370.739588916224	478.876348695859	548.792686774502	1101.572672941179	180.368858272189	476.345051116929	111.292203604234	582.765225980258	649.189210898284	732.185600335693	349.671735060586	737.801125318783	922.506092788165	186.534004411081	692.088749731895	759.135404735701	608.635684528156	549.577624420169	656.301860771739	307.220714059022	603.599816415974	264.645051662418	570.218909063018	409.788609860988	33.375158151904	375.891799691653	699.715159629429	410.726894851567	599.778476895697	631.439022883833	677.260926800163	660.200062495809	609.233456627554	963.643147874848	335.298082560304	736.655251879113	656.847475344214	599.273353330521	771.815575672162	527.918366942245	598.522679272087	421.256960820093	987.968883072762	449.976144650042	580.383622854279	974.598427565846	593.678714218111	
107	1.707428571429	610.792058114759	38.995913325989	395.570912219358	493.889158388943	90.304618110996	408.221289274368	461.175167192263	1465.054456966807	453.982258085911	708.676446768955	33.849387327730	565.763789467731	434.971030898621	139.943591413528	516.690348342338	320.402169369819	46.634253192366	440.691687760703	431.630986763069	1079.334425117230	716.727352182137	493.195487988107	1423.614197539828	623.109624177269	485.883669658414	229.933763777936	394.527722465212	543.967858278081	1433.434056123456	315.291870075982	532.558763245959	377.925752261349	370.559879094473	608.844897994779	401.657156068049	641.950180999140	590.367101240277	480.872119453538	386.765069436339	621.028918441193	601.899022437734	366.644923323573	500.436693173578	836.517295891011	753.866257185664	613.300220916232	122.317556640139	553.013252258179	436.829871851480	333.818589590483	325.230675383344	612.610741581679	1370.730422011356	479.467054624177	552.042816620305	1102.574885743493	179.199796931093	504.237985619760	98.521973411235	584.725443557800	643.809970782308	730.919635671359	349.972570740268	745.976002453953	928.740809898046	187.055770796228	690.681473634338	760.880165412211	608.042436263735	542.956519958992	656.649068048619	307.146622280081	621.190880449098	260.115778299021	571.674716267194	397.528692885996	34.286261976933	375.796203796607	707.114972294221	412.632491051668	600.387687677879	631.649014207704	678.747255778126	661.064071321151	607.480710760200	963.325902830720	335.692477022885	735.991032820502	658.917827838261	598.453964364364	772.421076068887	531.240447760173	598.366030676976	419.542717716187	988.496049982844	450.200650028299	578.423889741432	974.797532609807	594.064704245136	
108	1.719857142857	598.384457284770	38.622604846118	395.519624855071	482.005786631173	90.552205486656	407.914201020543	460.800684788586	1465.255209434272	454.050569084546	740.963418560795	34.736349161010	568.767680487015	461.431274529368	123.605547313778	518.585699472744	308.188690729629	48.432067940252	440.503827943418	426.372215195752	1080.159684760800	716.089240882147	492.044355859913	1423.747519346045	623.320476321180	474.533993438688	230.705617688444	393.991576566594	544.063076359642	1433.571205127638	315.741956434958	521.809287239582	378.523968374675	369.921384336940	616.321195688306	396.689348455835	642.783234863436	580.251616192225	480.283283016916	386.400236918792	613.509332840119	600.846816866180	366.854970140978	491.455918048067	836.484426152629	753.808679745106	640.417636530879	117.129100348546	555.478795482621	425.812208767867	335.093715824605	324.791093774699	611.889402077453	1370.590299693460	480.134940543132	555.107671015011	1103.373640285369	178.226293366355	532.887882478019	86.691189305286	586.955661984849	638.385835057113	729.602462462782	350.475170297915	753.627743178255	934.720013900917	187.744462104153	688.793788671147	761.773044014419	607.636848699829	536.435359028884	656.971349886881	307.063974265607	638.713624013027	255.899512924396	573.326377023814	385.284531058913	35.238222014399	375.678202613750	713.490805511568	414.355657021647	601.031813309997	630.822848099085	679.512030561102	661.639210129041	605.777792211762	962.894450632411	336.200079048226	734.470397582470	659.959393337800	597.779157800449	771.780747032744	533.619357257409	598.030190278349	417.906077524590	988.921950084309	450.528670071931	576.550376983949	974.803377666130	594.561419514761	
109	1.732285714286	585.964172761063	38.286347919023	395.465982025913	470.166343705131	90.813196581708	407.559170113435	460.495948011086	1465.309866422529	454.236343236602	773.010985999867	37.036588607036	572.453323996046	488.993086236050	108.256976278195	520.500545213497	296.009221993555	50.301658325166	440.294648109233	421.550486262789	1080.891451427203	715.577397779854	491.030112900126	1423.783561649800	623.647413491771	463.258576089043	231.512946164480	393.433918279300	544.159368019264	1433.520593887296	316.278844340823	511.196443414445	379.140204971033	369.294067773025	623.184386203174	391.516584241184	643.437335515491	570.285376430474	479.606671957329	386.138953487482	606.006773297350	599.814346283328	367.228702816035	483.177116210498	836.460174102183	753.818438825930	667.741322039774	112.993193818241	558.276220342916	414.918620473300	336.429934681798	324.337619718315	611.239965745344	1370.312777466237	480.875234756291	557.981501984895	1103.962139330938	177.459893543185	562.165811153439	76.126141945147	589.404304598023	632.958228202897	728.240795745358	351.154453884269	760.742475835152	940.393656935717	188.594923859282	686.436488744008	761.753894505793	607.451959775761	530.056359512672	657.251531894231	306.970874483388	656.041005379849	252.214856384491	575.113534973982	373.056640972373	36.227407482432	375.540063406186	718.779981689745	415.922049515113	601.689614010984	628.915042231414	679.501281389796	661.930479689931	604.122062463471	962.340898803022	336.795557481307	732.100670441201	659.919298725230	597.279425365697	769.933992578536	535.050476974317	597.475606358073	416.366587083395	989.238711364644	450.967623059631	574.811502085120	974.613816180347	595.151001582906	
110	1.744714285714	573.531515162938	38.000662517377	395.406125717661	458.370246332983	91.080501955586	407.157835448317	460.271658070579	1465.208380821216	454.548708797934	804.635727990391	41.102899489626	576.609837696302	517.431765901965	94.203167762848	522.430642369547	283.870762221946	52.241954910460	440.063568254536	417.162576289625	1081.504385181535	715.207008519069	490.176024860761	1423.702172721858	624.096219114037	452.084517708265	232.335204391324	392.868175283261	544.269048580634	1433.287501192214	316.908290540078	500.771422756834	379.748030173315	368.695483220592	629.421994278379	386.253278036955	643.919084737335	560.530473883909	478.835901594205	385.979746956855	598.564847975923	598.803751637349	367.745047256761	475.615669919045	836.414044550346	753.917686213487	695.064937929585	110.238611992261	561.285013520426	404.191342697455	337.817872284055	323.886301800462	610.680744898777	1369.889712808195	481.682058668592	560.655424113146	1104.337077331637	176.908666795729	591.884965797282	67.114955020715	592.003387490956	627.574544175257	726.844166723811	351.962767021954	767.308097532010	945.714476372644	189.599680680147	683.624857517495	760.794274568431	607.505262858541	523.856000418510	657.476562765607	306.862676951748	673.025302049638	249.258735652567	576.977186904131	360.845221413197	37.253688337974	375.385517052607	722.956894206668	417.363612193039	602.347519914017	625.925914970910	678.702335301622	661.965682335592	602.510201179438	961.659960704100	337.451530009860	728.903791979483	658.788439737588	596.968578920388	766.961078242417	535.593886370311	596.678346754804	414.938124706685	989.430174361869	451.522661126131	573.247270526194	974.228669684939	595.815953789652	
111	1.757142857143	561.086572380481	37.772850580976	395.336468112960	446.616806062163	91.348223177881	406.714731081093	460.136217518971	1464.940364346169	454.997116394000	835.556711408331	47.199256754256	580.978179786500	546.432181485936	81.703629807576	524.368431889364	271.779854062554	54.260459845865	439.813550059301	413.202730629394	1081.972938669423	714.994746643399	489.504276548608	1423.481427751224	624.670977729596	441.041552894561	233.155214307645	392.306850048281	544.401342384687	1432.877375314110	317.636191341960	490.587217124110	380.324705324363	368.140835711525	635.038976615459	381.022408082129	644.248715455177	551.054173108864	477.980420286060	385.908458671626	591.239268928419	597.817015730713	368.360994139283	468.776833919481	836.313578641974	754.127854109326	722.101589336140	109.118870566181	564.365954780576	393.674571708729	339.250335666547	323.456371738806	610.227599265565	1369.311832992426	482.548951850866	563.118513961414	1104.497783105958	176.576473447178	621.779074764679	59.882505342168	594.668114995224	622.286914369122	725.423387829012	352.835013562513	773.314721477774	950.638174562004	190.749373288722	680.385535923303	758.908307725828	607.795491406233	517.865812315073	657.638419684517	306.734432061696	689.497467309990	247.184189313300	578.860401496373	348.650403251033	38.321065382562	375.219902766376	726.045275819154	418.712730386166	602.999724108902	621.914426551099	677.149049598942	661.796010178571	600.940561159938	960.850612724504	338.141580355573	724.925124461564	656.612993135645	596.842554458448	762.990206262036	535.375881347418	595.638938818823	413.628077623662	989.472097226001	452.198325845224	571.885260724530	973.649808094087	596.540075689116	
